<mxfile host="Electron" modified="2024-02-08T22:29:15.408Z" agent="Mozilla/5.0 (X11; Linux x86_64) AppleWebKit/537.36 (KHTML, like Gecko) draw.io/23.0.2 Chrome/120.0.6099.109 Electron/28.1.0 Safari/537.36" etag="ol_4TWFD8kyj6DHY0vFi" version="23.0.2" type="device">
  <diagram id="hYVVODAgU63mohFtX49g" name="Page-1">
    <mxGraphModel dx="2001" dy="1787" grid="1" gridSize="10" guides="1" tooltips="1" connect="1" arrows="1" fold="1" page="1" pageScale="1" pageWidth="850" pageHeight="1100" math="0" shadow="0">
      <root>
        <mxCell id="0" />
        <mxCell id="1" parent="0" />
        <mxCell id="QHRHIjRIj0fhzcaKsaCG-30" value="" style="rounded=1;whiteSpace=wrap;html=1;fillColor=#fff2cc;strokeColor=#d6b656;" parent="1" vertex="1">
          <mxGeometry x="55" y="-30" width="510" height="420" as="geometry" />
        </mxCell>
        <mxCell id="QHRHIjRIj0fhzcaKsaCG-5" style="edgeStyle=orthogonalEdgeStyle;rounded=0;orthogonalLoop=1;jettySize=auto;html=1;entryX=0;entryY=0.5;entryDx=0;entryDy=0;exitX=1;exitY=0.5;exitDx=0;exitDy=0;" parent="1" source="_6xte_bvHcVi9WSXcDBz-1" target="QHRHIjRIj0fhzcaKsaCG-4" edge="1">
          <mxGeometry relative="1" as="geometry">
            <Array as="points" />
            <mxPoint x="200" y="30" as="sourcePoint" />
          </mxGeometry>
        </mxCell>
        <mxCell id="Ri5KKmGAbXfFG7E4pKZj-1" style="edgeStyle=orthogonalEdgeStyle;rounded=0;orthogonalLoop=1;jettySize=auto;html=1;exitX=0;exitY=0.5;exitDx=0;exitDy=0;entryX=0.75;entryY=1;entryDx=0;entryDy=0;" parent="1" source="QHRHIjRIj0fhzcaKsaCG-2" target="QHRHIjRIj0fhzcaKsaCG-34" edge="1">
          <mxGeometry relative="1" as="geometry">
            <Array as="points">
              <mxPoint x="200" y="170" />
            </Array>
          </mxGeometry>
        </mxCell>
        <mxCell id="QHRHIjRIj0fhzcaKsaCG-2" value="&lt;div&gt;preciceC.cpp&lt;br&gt;&lt;/div&gt;" style="rounded=0;whiteSpace=wrap;html=1;" parent="1" vertex="1">
          <mxGeometry x="250" y="140" width="120" height="60" as="geometry" />
        </mxCell>
        <mxCell id="QHRHIjRIj0fhzcaKsaCG-4" value="impl" style="rounded=0;whiteSpace=wrap;html=1;" parent="1" vertex="1">
          <mxGeometry x="420" width="120" height="60" as="geometry" />
        </mxCell>
        <mxCell id="QHRHIjRIj0fhzcaKsaCG-7" value="extern &quot;C&quot;" style="text;html=1;strokeColor=none;fillColor=none;align=center;verticalAlign=middle;whiteSpace=wrap;rounded=0;" parent="1" vertex="1">
          <mxGeometry x="320" y="260" width="60" height="20" as="geometry" />
        </mxCell>
        <mxCell id="QHRHIjRIj0fhzcaKsaCG-8" value="preciceC.h" style="rounded=0;whiteSpace=wrap;html=1;fillColor=#f8cecc;strokeColor=#b85450;" parent="1" vertex="1">
          <mxGeometry x="250" y="200" width="120" height="60" as="geometry" />
        </mxCell>
        <mxCell id="QHRHIjRIj0fhzcaKsaCG-24" style="edgeStyle=orthogonalEdgeStyle;rounded=0;orthogonalLoop=1;jettySize=auto;html=1;exitX=0.75;exitY=0;exitDx=0;exitDy=0;entryX=0;entryY=0.25;entryDx=0;entryDy=0;dashed=1;dashPattern=1 1;" parent="1" source="QHRHIjRIj0fhzcaKsaCG-11" target="QHRHIjRIj0fhzcaKsaCG-23" edge="1">
          <mxGeometry relative="1" as="geometry" />
        </mxCell>
        <mxCell id="QHRHIjRIj0fhzcaKsaCG-35" style="edgeStyle=orthogonalEdgeStyle;rounded=0;orthogonalLoop=1;jettySize=auto;html=1;exitX=0.5;exitY=0;exitDx=0;exitDy=0;entryX=0.5;entryY=1;entryDx=0;entryDy=0;" parent="1" source="QHRHIjRIj0fhzcaKsaCG-11" target="QHRHIjRIj0fhzcaKsaCG-34" edge="1">
          <mxGeometry relative="1" as="geometry" />
        </mxCell>
        <mxCell id="QHRHIjRIj0fhzcaKsaCG-11" value="C++ solver" style="rounded=0;whiteSpace=wrap;html=1;fillColor=#d5e8d4;strokeColor=#82b366;" parent="1" vertex="1">
          <mxGeometry x="110" y="420" width="120" height="60" as="geometry" />
        </mxCell>
        <mxCell id="QHRHIjRIj0fhzcaKsaCG-13" value="Library" style="text;html=1;strokeColor=none;fillColor=none;align=center;verticalAlign=middle;whiteSpace=wrap;rounded=0;" parent="1" vertex="1">
          <mxGeometry x="80" y="340" width="40" height="20" as="geometry" />
        </mxCell>
        <mxCell id="QHRHIjRIj0fhzcaKsaCG-15" style="edgeStyle=orthogonalEdgeStyle;rounded=0;orthogonalLoop=1;jettySize=auto;html=1;exitX=0.5;exitY=0;exitDx=0;exitDy=0;entryX=0.5;entryY=1;entryDx=0;entryDy=0;" parent="1" source="QHRHIjRIj0fhzcaKsaCG-14" target="QHRHIjRIj0fhzcaKsaCG-8" edge="1">
          <mxGeometry relative="1" as="geometry">
            <mxPoint x="340" y="310" as="targetPoint" />
          </mxGeometry>
        </mxCell>
        <mxCell id="QHRHIjRIj0fhzcaKsaCG-25" style="edgeStyle=orthogonalEdgeStyle;rounded=0;orthogonalLoop=1;jettySize=auto;html=1;exitX=0.75;exitY=0;exitDx=0;exitDy=0;entryX=-0.001;entryY=0.579;entryDx=0;entryDy=0;dashed=1;dashPattern=1 1;entryPerimeter=0;" parent="1" source="QHRHIjRIj0fhzcaKsaCG-14" target="QHRHIjRIj0fhzcaKsaCG-23" edge="1">
          <mxGeometry relative="1" as="geometry" />
        </mxCell>
        <mxCell id="QHRHIjRIj0fhzcaKsaCG-14" value="C solver" style="rounded=0;whiteSpace=wrap;html=1;fillColor=#d5e8d4;strokeColor=#82b366;" parent="1" vertex="1">
          <mxGeometry x="250" y="420" width="120" height="60" as="geometry" />
        </mxCell>
        <mxCell id="PUCwOCAwKSFv33U1LzpC-1" style="edgeStyle=orthogonalEdgeStyle;rounded=0;orthogonalLoop=1;jettySize=auto;html=1;exitX=0.5;exitY=0;exitDx=0;exitDy=0;entryX=1;entryY=0.5;entryDx=0;entryDy=0;" parent="1" source="QHRHIjRIj0fhzcaKsaCG-16" target="QHRHIjRIj0fhzcaKsaCG-34" edge="1">
          <mxGeometry relative="1" as="geometry">
            <Array as="points">
              <mxPoint x="470" y="90" />
            </Array>
          </mxGeometry>
        </mxCell>
        <mxCell id="QHRHIjRIj0fhzcaKsaCG-16" value="preciceFortran.cpp" style="rounded=0;whiteSpace=wrap;html=1;" parent="1" vertex="1">
          <mxGeometry x="390" y="140" width="160" height="60" as="geometry" />
        </mxCell>
        <mxCell id="QHRHIjRIj0fhzcaKsaCG-46" style="edgeStyle=orthogonalEdgeStyle;rounded=0;orthogonalLoop=1;jettySize=auto;html=1;exitX=1;exitY=0.25;exitDx=0;exitDy=0;entryX=0.25;entryY=0;entryDx=0;entryDy=0;entryPerimeter=0;dashed=1;endArrow=none;endFill=0;" parent="1" source="QHRHIjRIj0fhzcaKsaCG-18" target="QHRHIjRIj0fhzcaKsaCG-40" edge="1">
          <mxGeometry relative="1" as="geometry" />
        </mxCell>
        <mxCell id="QHRHIjRIj0fhzcaKsaCG-18" value="preciceFortran.hpp" style="rounded=0;whiteSpace=wrap;html=1;" parent="1" vertex="1">
          <mxGeometry x="390" y="200" width="160" height="60" as="geometry" />
        </mxCell>
        <mxCell id="QHRHIjRIj0fhzcaKsaCG-22" value="extern &quot;C&quot;" style="text;html=1;strokeColor=none;fillColor=none;align=center;verticalAlign=middle;whiteSpace=wrap;rounded=0;" parent="1" vertex="1">
          <mxGeometry x="490" y="260" width="60" height="20" as="geometry" />
        </mxCell>
        <mxCell id="QHRHIjRIj0fhzcaKsaCG-23" value="libprecice.so" style="rounded=0;whiteSpace=wrap;html=1;fillColor=#dae8fc;strokeColor=#6c8ebf;" parent="1" vertex="1">
          <mxGeometry x="390" y="320" width="120" height="60" as="geometry" />
        </mxCell>
        <mxCell id="QHRHIjRIj0fhzcaKsaCG-27" style="edgeStyle=orthogonalEdgeStyle;rounded=0;orthogonalLoop=1;jettySize=auto;html=1;exitX=0.5;exitY=0;exitDx=0;exitDy=0;entryX=0.5;entryY=1;entryDx=0;entryDy=0;dashed=1;dashPattern=1 1;" parent="1" source="QHRHIjRIj0fhzcaKsaCG-26" target="QHRHIjRIj0fhzcaKsaCG-23" edge="1">
          <mxGeometry relative="1" as="geometry" />
        </mxCell>
        <mxCell id="QHRHIjRIj0fhzcaKsaCG-26" value="Fortran solver&lt;br&gt;(without modules)" style="rounded=0;whiteSpace=wrap;html=1;fillColor=#d5e8d4;strokeColor=#82b366;" parent="1" vertex="1">
          <mxGeometry x="390" y="420" width="120" height="60" as="geometry" />
        </mxCell>
        <mxCell id="QHRHIjRIj0fhzcaKsaCG-31" value="include" style="text;html=1;strokeColor=none;fillColor=none;align=center;verticalAlign=middle;whiteSpace=wrap;rounded=0;" parent="1" vertex="1">
          <mxGeometry x="127" y="390" width="40" height="20" as="geometry" />
        </mxCell>
        <mxCell id="QHRHIjRIj0fhzcaKsaCG-32" value="link to" style="text;html=1;strokeColor=none;fillColor=none;align=center;verticalAlign=middle;whiteSpace=wrap;rounded=0;" parent="1" vertex="1">
          <mxGeometry x="200" y="390" width="40" height="20" as="geometry" />
        </mxCell>
        <mxCell id="QHRHIjRIj0fhzcaKsaCG-33" value="precice.f90" style="rounded=0;whiteSpace=wrap;html=1;" parent="1" vertex="1">
          <mxGeometry x="600" y="320" width="150" height="60" as="geometry" />
        </mxCell>
        <mxCell id="QHRHIjRIj0fhzcaKsaCG-34" value="precice.hpp" style="rounded=0;whiteSpace=wrap;html=1;fillColor=#f8cecc;strokeColor=#b85450;" parent="1" vertex="1">
          <mxGeometry x="110" y="60" width="120" height="60" as="geometry" />
        </mxCell>
        <mxCell id="QHRHIjRIj0fhzcaKsaCG-45" style="edgeStyle=orthogonalEdgeStyle;rounded=0;orthogonalLoop=1;jettySize=auto;html=1;exitX=0.5;exitY=0;exitDx=0;exitDy=0;entryX=0.5;entryY=1;entryDx=0;entryDy=0;dashed=1;dashPattern=1 1;" parent="1" source="QHRHIjRIj0fhzcaKsaCG-37" target="QHRHIjRIj0fhzcaKsaCG-41" edge="1">
          <mxGeometry relative="1" as="geometry" />
        </mxCell>
        <mxCell id="QHRHIjRIj0fhzcaKsaCG-37" value="Fortran solver&lt;br&gt;(modules supported)" style="rounded=0;whiteSpace=wrap;html=1;fillColor=#d5e8d4;strokeColor=#82b366;" parent="1" vertex="1">
          <mxGeometry x="550" y="500" width="150" height="60" as="geometry" />
        </mxCell>
        <mxCell id="QHRHIjRIj0fhzcaKsaCG-39" value="use iso_c_binding" style="text;html=1;strokeColor=none;fillColor=none;align=center;verticalAlign=middle;whiteSpace=wrap;rounded=0;" parent="1" vertex="1">
          <mxGeometry x="650" y="380" width="100" height="20" as="geometry" />
        </mxCell>
        <mxCell id="QHRHIjRIj0fhzcaKsaCG-40" value="subroutine precicef_initialize() &amp;amp;&lt;br&gt;&amp;nbsp;&amp;nbsp;&amp;nbsp;&amp;nbsp;&amp;nbsp; &amp;amp;&amp;nbsp; bind(c, name=&#39;precicef_initialize_&#39;)" style="shape=callout;whiteSpace=wrap;html=1;perimeter=calloutPerimeter;fillColor=#f5f5f5;strokeColor=#666666;fontColor=#333333;position2=0.5;" parent="1" vertex="1">
          <mxGeometry x="580" y="240" width="250" height="70" as="geometry" />
        </mxCell>
        <mxCell id="QHRHIjRIj0fhzcaKsaCG-42" style="edgeStyle=orthogonalEdgeStyle;rounded=0;orthogonalLoop=1;jettySize=auto;html=1;exitX=0.25;exitY=0;exitDx=0;exitDy=0;entryX=1;entryY=0.75;entryDx=0;entryDy=0;dashed=1;dashPattern=1 1;" parent="1" source="QHRHIjRIj0fhzcaKsaCG-41" target="QHRHIjRIj0fhzcaKsaCG-23" edge="1">
          <mxGeometry relative="1" as="geometry" />
        </mxCell>
        <mxCell id="QHRHIjRIj0fhzcaKsaCG-44" style="edgeStyle=orthogonalEdgeStyle;rounded=0;orthogonalLoop=1;jettySize=auto;html=1;exitX=0.5;exitY=0;exitDx=0;exitDy=0;entryX=0.25;entryY=1;entryDx=0;entryDy=0;" parent="1" source="QHRHIjRIj0fhzcaKsaCG-41" target="QHRHIjRIj0fhzcaKsaCG-33" edge="1">
          <mxGeometry relative="1" as="geometry">
            <Array as="points">
              <mxPoint x="625" y="400" />
              <mxPoint x="638" y="400" />
            </Array>
          </mxGeometry>
        </mxCell>
        <mxCell id="QHRHIjRIj0fhzcaKsaCG-41" value="precice.mod" style="rounded=0;whiteSpace=wrap;html=1;fillColor=#dae8fc;strokeColor=#6c8ebf;" parent="1" vertex="1">
          <mxGeometry x="550" y="420" width="150" height="60" as="geometry" />
        </mxCell>
        <mxCell id="QHRHIjRIj0fhzcaKsaCG-47" style="edgeStyle=orthogonalEdgeStyle;rounded=0;orthogonalLoop=1;jettySize=auto;html=1;exitX=0.698;exitY=-0.021;exitDx=0;exitDy=0;exitPerimeter=0;dashed=1;endArrow=none;endFill=0;" parent="1" source="QHRHIjRIj0fhzcaKsaCG-33" target="QHRHIjRIj0fhzcaKsaCG-40" edge="1">
          <mxGeometry relative="1" as="geometry" />
        </mxCell>
        <mxCell id="Ri5KKmGAbXfFG7E4pKZj-4" value="C++" style="text;html=1;strokeColor=none;fillColor=none;align=center;verticalAlign=middle;whiteSpace=wrap;rounded=0;" parent="1" vertex="1">
          <mxGeometry x="150" y="-20" width="40" height="20" as="geometry" />
        </mxCell>
        <mxCell id="Ri5KKmGAbXfFG7E4pKZj-5" value="preCICE internals" style="text;html=1;strokeColor=none;fillColor=none;align=center;verticalAlign=middle;whiteSpace=wrap;rounded=0;" parent="1" vertex="1">
          <mxGeometry x="425" y="-20" width="105" height="20" as="geometry" />
        </mxCell>
        <mxCell id="Ri5KKmGAbXfFG7E4pKZj-6" value="C" style="text;html=1;strokeColor=none;fillColor=none;align=center;verticalAlign=middle;whiteSpace=wrap;rounded=0;" parent="1" vertex="1">
          <mxGeometry x="290" y="120" width="40" height="20" as="geometry" />
        </mxCell>
        <mxCell id="Ri5KKmGAbXfFG7E4pKZj-7" value="Fortran" style="text;html=1;strokeColor=none;fillColor=none;align=center;verticalAlign=middle;whiteSpace=wrap;rounded=0;" parent="1" vertex="1">
          <mxGeometry x="490" y="120" width="40" height="20" as="geometry" />
        </mxCell>
        <mxCell id="Ri5KKmGAbXfFG7E4pKZj-10" style="edgeStyle=orthogonalEdgeStyle;rounded=0;orthogonalLoop=1;jettySize=auto;html=1;exitX=1;exitY=0.5;exitDx=0;exitDy=0;" parent="1" edge="1">
          <mxGeometry relative="1" as="geometry">
            <mxPoint x="-40" y="299.97" as="sourcePoint" />
            <mxPoint x="130" y="120" as="targetPoint" />
            <Array as="points">
              <mxPoint x="130" y="300" />
            </Array>
          </mxGeometry>
        </mxCell>
        <mxCell id="Ri5KKmGAbXfFG7E4pKZj-8" value="Participant.pxd" style="rounded=0;whiteSpace=wrap;html=1;" parent="1" vertex="1">
          <mxGeometry x="-80" y="270" width="120" height="60" as="geometry" />
        </mxCell>
        <mxCell id="Ri5KKmGAbXfFG7E4pKZj-9" value="Fortran module" style="text;html=1;strokeColor=none;fillColor=none;align=center;verticalAlign=middle;whiteSpace=wrap;rounded=0;" parent="1" vertex="1">
          <mxGeometry x="600" y="300" width="90" height="20" as="geometry" />
        </mxCell>
        <mxCell id="Ri5KKmGAbXfFG7E4pKZj-12" style="edgeStyle=orthogonalEdgeStyle;rounded=0;orthogonalLoop=1;jettySize=auto;html=1;exitX=1;exitY=0.5;exitDx=0;exitDy=0;entryX=0;entryY=0.5;entryDx=0;entryDy=0;" parent="1" source="Ri5KKmGAbXfFG7E4pKZj-11" target="QHRHIjRIj0fhzcaKsaCG-34" edge="1">
          <mxGeometry relative="1" as="geometry" />
        </mxCell>
        <mxCell id="Ri5KKmGAbXfFG7E4pKZj-11" value="preciceGateway.cpp" style="rounded=0;whiteSpace=wrap;html=1;" parent="1" vertex="1">
          <mxGeometry x="-80" y="60" width="120" height="60" as="geometry" />
        </mxCell>
        <mxCell id="Ri5KKmGAbXfFG7E4pKZj-13" value="Python" style="text;html=1;strokeColor=none;fillColor=none;align=center;verticalAlign=middle;whiteSpace=wrap;rounded=0;" parent="1" vertex="1">
          <mxGeometry x="-40" y="250" width="40" height="20" as="geometry" />
        </mxCell>
        <mxCell id="Ri5KKmGAbXfFG7E4pKZj-14" value="Matlab" style="text;html=1;strokeColor=none;fillColor=none;align=center;verticalAlign=middle;whiteSpace=wrap;rounded=0;" parent="1" vertex="1">
          <mxGeometry x="-40" y="40" width="40" height="20" as="geometry" />
        </mxCell>
        <mxCell id="Ri5KKmGAbXfFG7E4pKZj-16" style="edgeStyle=orthogonalEdgeStyle;rounded=0;orthogonalLoop=1;jettySize=auto;html=1;exitX=0.5;exitY=0;exitDx=0;exitDy=0;entryX=0.5;entryY=1;entryDx=0;entryDy=0;" parent="1" source="Ri5KKmGAbXfFG7E4pKZj-15" target="Ri5KKmGAbXfFG7E4pKZj-8" edge="1">
          <mxGeometry relative="1" as="geometry" />
        </mxCell>
        <mxCell id="Ri5KKmGAbXfFG7E4pKZj-19" style="edgeStyle=orthogonalEdgeStyle;rounded=0;orthogonalLoop=1;jettySize=auto;html=1;exitX=1;exitY=0.5;exitDx=0;exitDy=0;entryX=0;entryY=0.75;entryDx=0;entryDy=0;dashed=1;dashPattern=1 1;" parent="1" source="Ri5KKmGAbXfFG7E4pKZj-15" target="QHRHIjRIj0fhzcaKsaCG-23" edge="1">
          <mxGeometry relative="1" as="geometry">
            <Array as="points">
              <mxPoint x="40" y="365" />
            </Array>
          </mxGeometry>
        </mxCell>
        <mxCell id="Ri5KKmGAbXfFG7E4pKZj-15" value="Python solver" style="rounded=0;whiteSpace=wrap;html=1;fillColor=#d5e8d4;strokeColor=#82b366;" parent="1" vertex="1">
          <mxGeometry x="-80" y="360" width="120" height="60" as="geometry" />
        </mxCell>
        <mxCell id="Ri5KKmGAbXfFG7E4pKZj-18" style="edgeStyle=orthogonalEdgeStyle;rounded=0;orthogonalLoop=1;jettySize=auto;html=1;exitX=0.5;exitY=0;exitDx=0;exitDy=0;entryX=0.5;entryY=1;entryDx=0;entryDy=0;" parent="1" source="Ri5KKmGAbXfFG7E4pKZj-17" target="Ri5KKmGAbXfFG7E4pKZj-11" edge="1">
          <mxGeometry relative="1" as="geometry" />
        </mxCell>
        <mxCell id="Ri5KKmGAbXfFG7E4pKZj-20" style="edgeStyle=orthogonalEdgeStyle;rounded=0;orthogonalLoop=1;jettySize=auto;html=1;entryX=-0.008;entryY=0.117;entryDx=0;entryDy=0;entryPerimeter=0;dashed=1;dashPattern=1 1;" parent="1" target="QHRHIjRIj0fhzcaKsaCG-23" edge="1">
          <mxGeometry relative="1" as="geometry">
            <mxPoint x="40" y="190" as="sourcePoint" />
            <Array as="points">
              <mxPoint x="110" y="190" />
              <mxPoint x="110" y="327" />
            </Array>
          </mxGeometry>
        </mxCell>
        <mxCell id="Ri5KKmGAbXfFG7E4pKZj-17" value="Matlab solver" style="rounded=0;whiteSpace=wrap;html=1;fillColor=#d5e8d4;strokeColor=#82b366;" parent="1" vertex="1">
          <mxGeometry x="-80" y="160" width="120" height="60" as="geometry" />
        </mxCell>
        <mxCell id="Ri5KKmGAbXfFG7E4pKZj-21" value="mex" style="text;html=1;strokeColor=none;fillColor=none;align=center;verticalAlign=middle;whiteSpace=wrap;rounded=0;" parent="1" vertex="1">
          <mxGeometry y="120" width="40" height="20" as="geometry" />
        </mxCell>
        <mxCell id="fCn0hWhs9GKEyJ6KPFge-3" style="edgeStyle=orthogonalEdgeStyle;rounded=0;orthogonalLoop=1;jettySize=auto;html=1;exitX=1;exitY=0.5;exitDx=0;exitDy=0;entryX=0;entryY=0.5;entryDx=0;entryDy=0;" parent="1" source="fCn0hWhs9GKEyJ6KPFge-1" target="fCn0hWhs9GKEyJ6KPFge-2" edge="1">
          <mxGeometry relative="1" as="geometry" />
        </mxCell>
        <mxCell id="fCn0hWhs9GKEyJ6KPFge-1" value="Julia solver" style="rounded=0;whiteSpace=wrap;html=1;fillColor=#d5e8d4;strokeColor=#82b366;" parent="1" vertex="1">
          <mxGeometry x="250" y="500" width="120" height="60" as="geometry" />
        </mxCell>
        <mxCell id="fCn0hWhs9GKEyJ6KPFge-4" style="edgeStyle=orthogonalEdgeStyle;rounded=0;orthogonalLoop=1;jettySize=auto;html=1;exitX=1;exitY=0.5;exitDx=0;exitDy=0;entryX=0.75;entryY=1;entryDx=0;entryDy=0;dashed=1;dashPattern=1 1;" parent="1" source="fCn0hWhs9GKEyJ6KPFge-2" target="QHRHIjRIj0fhzcaKsaCG-23" edge="1">
          <mxGeometry relative="1" as="geometry">
            <Array as="points">
              <mxPoint x="530" y="530" />
              <mxPoint x="530" y="410" />
              <mxPoint x="480" y="410" />
            </Array>
          </mxGeometry>
        </mxCell>
        <mxCell id="fCn0hWhs9GKEyJ6KPFge-2" value="PreCICE.jl" style="rounded=0;whiteSpace=wrap;html=1;fillColor=#dae8fc;strokeColor=#6c8ebf;" parent="1" vertex="1">
          <mxGeometry x="390" y="500" width="120" height="60" as="geometry" />
        </mxCell>
        <mxCell id="_6xte_bvHcVi9WSXcDBz-5" style="edgeStyle=orthogonalEdgeStyle;rounded=0;orthogonalLoop=1;jettySize=auto;html=1;exitX=0;exitY=0.5;exitDx=0;exitDy=0;entryX=1;entryY=0.5;entryDx=0;entryDy=0;" edge="1" parent="1" source="_6xte_bvHcVi9WSXcDBz-3" target="_6xte_bvHcVi9WSXcDBz-4">
          <mxGeometry relative="1" as="geometry" />
        </mxCell>
        <mxCell id="_6xte_bvHcVi9WSXcDBz-1" value="Participant.hpp&lt;br&gt;Version.h&lt;br&gt;(span.hpp, ...)" style="rounded=0;whiteSpace=wrap;html=1;" vertex="1" parent="1">
          <mxGeometry x="270" width="120" height="60" as="geometry" />
        </mxCell>
        <mxCell id="_6xte_bvHcVi9WSXcDBz-3" value="Rust solver" style="rounded=0;whiteSpace=wrap;html=1;fillColor=#d5e8d4;strokeColor=#82b366;" vertex="1" parent="1">
          <mxGeometry x="80" y="500" width="120" height="60" as="geometry" />
        </mxCell>
        <mxCell id="_6xte_bvHcVi9WSXcDBz-2" style="edgeStyle=orthogonalEdgeStyle;rounded=0;orthogonalLoop=1;jettySize=auto;html=1;exitX=0.5;exitY=0;exitDx=0;exitDy=0;entryX=-0.006;entryY=0.664;entryDx=0;entryDy=0;entryPerimeter=0;" edge="1" parent="1" source="QHRHIjRIj0fhzcaKsaCG-34" target="_6xte_bvHcVi9WSXcDBz-1">
          <mxGeometry relative="1" as="geometry" />
        </mxCell>
        <mxCell id="_6xte_bvHcVi9WSXcDBz-4" value="precice-bridge.cpp" style="rounded=0;whiteSpace=wrap;html=1;" vertex="1" parent="1">
          <mxGeometry x="-80" y="500" width="120" height="60" as="geometry" />
        </mxCell>
        <mxCell id="_6xte_bvHcVi9WSXcDBz-6" style="edgeStyle=orthogonalEdgeStyle;rounded=0;orthogonalLoop=1;jettySize=auto;html=1;exitX=0.5;exitY=0;exitDx=0;exitDy=0;entryX=0;entryY=0.75;entryDx=0;entryDy=0;" edge="1" parent="1" source="_6xte_bvHcVi9WSXcDBz-4" target="QHRHIjRIj0fhzcaKsaCG-34">
          <mxGeometry relative="1" as="geometry">
            <Array as="points">
              <mxPoint x="-20" y="460" />
              <mxPoint x="70" y="460" />
              <mxPoint x="70" y="105" />
            </Array>
          </mxGeometry>
        </mxCell>
        <mxCell id="_6xte_bvHcVi9WSXcDBz-7" style="edgeStyle=orthogonalEdgeStyle;rounded=0;orthogonalLoop=1;jettySize=auto;html=1;exitX=1;exitY=0.5;exitDx=0;exitDy=0;entryX=-0.001;entryY=0.388;entryDx=0;entryDy=0;entryPerimeter=0;dashed=1;dashPattern=1 1;" edge="1" parent="1" source="_6xte_bvHcVi9WSXcDBz-3" target="QHRHIjRIj0fhzcaKsaCG-23">
          <mxGeometry relative="1" as="geometry">
            <Array as="points">
              <mxPoint x="240" y="530" />
              <mxPoint x="240" y="343" />
            </Array>
          </mxGeometry>
        </mxCell>
      </root>
    </mxGraphModel>
  </diagram>
</mxfile>
